<svg width="105" height="286" viewBox="0 0 105 286" version="1.1" xmlns="http://www.w3.org/2000/svg" xmlns:xlink="http://www.w3.org/1999/xlink">
<title>logo</title>
<desc>Created using Figma</desc>
<g id="Canvas" transform="translate(-8438 -1525)">
<rect x="8438" y="1525" width="105" height="286" fill="#E5E5E5"/>
<clipPath id="clip-0" clip-rule="evenodd">
<path d="M 7805 1359L 9184 1359L 9184 6632L 7805 6632L 7805 1359Z" fill="#FFFFFF"/>
</clipPath>
<g id="HOMEPAGE" clip-path="url(#clip-0)">
<path d="M 7805 1359L 9184 1359L 9184 6632L 7805 6632L 7805 1359Z" fill="#FFFFFF"/>
<g id="Group">
<path d="M 7805 1403L 9184 1403L 9184 6681L 7805 6681L 7805 1403Z" fill="#FFFFFF"/>
<clipPath id="clip-1" clip-rule="evenodd">
<path d="M 7805 1403L 9184 1403L 9184 2003L 7805 2003L 7805 1403Z" fill="#FFFFFF"/>
</clipPath>
<g id="Frame 3" clip-path="url(#clip-1)">
<path d="M 7805 1403L 9184 1403L 9184 2003L 7805 2003L 7805 1403Z" fill="#FFFFFF"/>
<g id="Group">
<g id="Group">
<g id="logo">
<path d="M 8542.21 1525L 8438.61 1525L 8438.61 1810.08L 8542.21 1810.08L 8542.21 1525Z" fill="#FFFFFF"/>
<g id="Shape">
<use xlink:href="#path0_fill" transform="matrix(-1 2.44223e-16 2.45638e-16 1 8542.21 1573.18)" fill="#4F4F4F"/>
</g>
<g id="Shape">
<use xlink:href="#path1_fill" transform="matrix(-1 2.44223e-16 2.45638e-16 1 8509.77 1610.94)" fill="#4F4F4F"/>
</g>
<g id="Shape">
<use xlink:href="#path2_fill" transform="matrix(-1 2.44223e-16 2.45638e-16 1 8505.33 1525)" fill="#4F4F4F"/>
</g>
</g>
</g>
</g>
</g>
</g>
</g>
</g>
<defs>
<path id="path0_fill" d="M 49.8735 194.232C 54.4724 184.837 35.5142 162.482 31.8086 151.82C 25.5223 133.697 23.0078 113.74 24.5297 94.5838C 25.9193 77.3262 32.6357 60.7349 41.2381 45.876C 43.2232 42.4444 65.7547 0.366475 62.4792 0C 59.4022 0 52.4211 18.5569 50.2705 21.6553C 43.2232 31.7167 33.6283 39.8125 26.4487 49.7739C 10.3359 72.1289 1.10492 101.247 0.145429 128.699C -0.780975 155.385 2.65995 181.438 12.1556 206.392C 13.7768 210.69 19.0375 228.98 24.0665 229.013C 31.7093 229.047 47.2597 199.562 49.8735 194.232C 50.6344 192.666 47.1935 199.729 49.8735 194.232ZM 46.5649 30.6173C 27.4082 69.7635 22.8423 71.7624 22.2799 112.541C 22.2799 113.574 20.7579 113.674 20.6256 112.641C 14.4716 66.6318 39.4845 37.1472 46.0024 30.2508C 46.2671 29.951 46.7303 30.2841 46.5649 30.6173ZM 14.2731 93.0513C 15.795 82.2902 17.8464 70.8296 23.107 61.2346C 23.3055 60.8681 23.8349 61.1013 23.7026 61.5011C 12.9497 94.3173 16.556 118.938 24.5297 151.454C 24.7282 152.254 23.6364 152.687 23.2394 151.954C 13.3798 134.163 11.4608 113.007 14.2731 93.0513C 15.6627 83.0898 12.4203 106.111 14.2731 93.0513ZM 27.9375 222.084C 20.2285 230.379 11.1299 193.265 9.47564 187.768C -0.0530863 156.052 -1.01258 118.571 9.90576 87.121C 5.07522 115.44 11.8578 146.257 30.6837 168.212C 34.8856 173.109 50.8661 188.068 47.7229 194.398C 42.8924 204.093 35.3488 214.254 27.9375 222.084C 27.2427 222.85 29.8234 220.085 27.9375 222.084Z"/>
<path id="path1_fill" d="M 66.8256 83.2778C 62.5244 67.0863 54.253 52.4939 48.099 37.002C 45.5845 30.672 43.5332 24.6418 42.7722 17.8454C 42.4744 15.3134 44.261 1.25408 43.07 0.187973C 39.8275 -2.67719 34.3684 28.1067 34.2691 31.6048C 33.8721 46.4304 37.8093 60.3898 42.0774 74.3491C 47.2057 91.1737 47.2388 106.899 44.6581 124.223C 44.261 126.988 44.261 129.42 43.5662 132.152C 41.3164 140.981 37.0483 148.943 32.2178 156.639C 23.9463 169.799 11.9031 178.461 2.87064 190.455C -6.65809 203.115 9.68633 198.284 20.5385 197.984C 46.544 197.318 46.6101 202.216 57.2638 179.128C 70.9613 149.443 75.2956 115.128 66.8256 83.2778C 70.9613 98.9029 62.5244 67.0863 66.8256 83.2778ZM 64.2118 85.9764C 70.8621 110.197 64.675 129.42 50.2165 149.81C 39.3313 165.135 26.9571 177.762 10.9436 187.89C 10.4804 188.19 9.9841 187.557 10.348 187.157C 21.3656 175.363 64.7743 126.422 64.2118 85.9764ZM 46.1469 190.688C 39.6952 198.717 -5.63243 195.719 4.95505 193.687C 37.9086 187.39 63.1862 156.24 67.752 136.05C 68.513 140.748 63.0538 169.566 46.1469 190.688ZM 68.5791 127.821C 66.5609 154.007 30.2326 184.525 8.06512 191.388C 7.80043 191.488 7.60192 191.088 7.8666 190.955C 34.6331 177.795 57.727 150.076 68.7777 116.36C 69.9357 112.729 68.8108 124.023 68.5791 127.821C 68.8769 124.023 68.4137 130.087 68.5791 127.821ZM 60.1753 75.5152C 65.6014 94.6718 52.8303 123.457 46.544 134.118C 46.0808 134.884 44.9228 134.284 45.2867 133.452C 50.415 122.257 53.5913 102.901 47.4373 81.612C 41.9781 62.6886 37.9086 38.8677 39.1327 26.0078C 39.1658 25.5747 39.7614 25.508 39.8937 25.9411C 45.8492 46.2305 54.5507 55.6589 60.1753 75.5152Z"/>
<path id="path2_fill" d="M 37.0433 55.4118C 32.4774 76.4674 22.1215 95.7573 18.4159 117.046C 14.7765 137.935 18.3167 160.457 29.9629 178.414C 34.4956 185.377 37.3079 186.543 36.5139 194.672C 35.9845 199.969 32.5436 213.962 28.1432 217.427C 21.9561 222.291 25.4301 222.824 19.5078 214.828C 14.1809 207.632 10.7731 198.637 7.86153 190.241C 1.80682 172.817 -1.10473 153.227 0.384132 134.77C 2.7994 104.919 24.1067 77.9667 31.2201 49.0485C 33.9994 37.8543 33.8339 26.1271 31.0878 14.933C 29.4666 8.40308 27.6138 -0.925374 30.5253 0.0741029C 44.3221 4.87159 39.0615 46.1167 37.0433 55.4118ZM 7.89462 108.917C 7.79536 109.184 8.22548 109.384 8.29165 109.084C 20.5665 83.4971 38.2674 63.8407 37.1425 33.1568L 37.1425 32.9236L 37.1425 32.6904L 37.1425 32.5571L 37.1425 32.4571L 37.1425 32.4905C 37.0433 30.4582 36.7455 27.3598 36.3154 24.2948C 36.2492 23.895 36.1169 23.5285 35.8853 23.1953C 39.0946 54.7455 19.7724 80.7985 7.89462 108.917ZM 28.8049 180.646C 21.8899 169.152 17.688 156.226 16.5631 142.866C 15.0743 125.042 16.2984 116.08 16.8278 113.315C 16.894 113.048 16.53 112.848 16.3315 113.048C -4.4464 132.838 6.50502 198.004 25.761 217.693L 25.761 217.727C 25.7941 217.693 25.8933 217.793 25.8602 217.693C 25.9595 217.76 26.919 216.094 26.919 216.094C 29.5328 211.497 31.0547 206.366 32.8744 201.435C 32.8744 201.402 34.4295 197.004 34.9919 193.973C 35.2235 192.84 35.1243 191.674 34.7934 190.574L 28.8049 180.646ZM 4.12283 132.371C 9.74743 116.446 20.4011 102.754 25.9264 86.8287L 25.9264 86.7954L 25.9264 86.762L 25.9264 86.7287C 25.9595 86.6954 25.9926 86.5621 26.0588 86.3622C 26.0918 86.2956 26.0918 86.2623 26.1249 86.1957L 26.1249 86.1624L 26.158 86.0291C 26.1911 85.9625 26.1911 85.8958 26.2242 85.8292L 26.2573 85.7626L 26.3565 85.496C 26.3565 85.5627 26.3565 85.596 26.3234 85.6293C 28.0108 80.6319 29.6982 75.6012 31.1871 70.5372C 31.2532 70.304 30.9224 70.1707 30.8231 70.4039C 20.9966 94.1248 4.38752 112.382 3.4942 132.238C 3.46112 132.638 3.99049 132.738 4.12283 132.371Z"/>
</defs>
</svg>
